<svg id="e1a55366-e184-4896-9784-debd05129b5c" data-name="Layer 1" xmlns="http://www.w3.org/2000/svg" viewBox="0 0 360 360"><title>foot-print</title><path d="M179.12,152.63c0,6.77-.29,13.34-.78,19.52a22.19,22.19,0,0,1-.17,2.75,2.92,2.92,0,0,1-.71,1.54,69.24,69.24,0,0,0-16,44.83c0,2,.1,3.83.2,5.69a1.49,1.49,0,0,0,0,.21,3.11,3.11,0,0,1-2.67,3.42h0l-39.62,5.49-32.84,4.56a3.1,3.1,0,0,1-2-.41c-9.71-6-18.19-17.69-24.56-33.18.1-.09.1-.09,0-.09A167.83,167.83,0,0,1,49.59,163,199.88,199.88,0,0,1,48.41,141c0-30.77.59-94,60.21-97.46a40.43,40.43,0,0,1,9.12.78c18.92,3.33,35.49,16.77,46.67,36.18a.35.35,0,0,1,.1.2,99.79,99.79,0,0,1,9.31,21.87c2.75,11,4.52,24.8,5.1,40.1a22.2,22.2,0,0,1-.09,2.45H179C179.12,147.53,179.12,150.08,179.12,152.63Z" style="fill:#412312"/><path d="M185.3,298.25C188,337,157.35,341,145.09,341c-19.8,0-37.26-13.92-47.16-35A93.31,93.31,0,0,1,89,268.14l77.07-13.92a1.22,1.22,0,0,1,.49.49c.1.1.29.2.29.39a58.56,58.56,0,0,1,11.18,15,.1.1,0,0,1,.1.1,55.64,55.64,0,0,1,6.57,20.2C185.1,293,185.11,295.61,185.3,298.25Z" style="fill:#412312"/></svg>