<svg id="a3651bc1-9794-47ec-8502-70609f615219" data-name="Layer 1" xmlns="http://www.w3.org/2000/svg" viewBox="0 0 360 360"><title>foot-print</title><path d="M117.76,152.55c0,6.77.29,13.34.78,19.51a22.35,22.35,0,0,0,.17,2.76,3,3,0,0,0,.7,1.54,69.25,69.25,0,0,1,16,44.83c0,2-.1,3.82-.2,5.69,0,.07,0,.14,0,.21a3.1,3.1,0,0,0,2.67,3.42h0L177.47,236l32.85,4.55a3,3,0,0,0,2-.4c9.71-6,18.19-17.69,24.55-33.18-.09-.1-.09-.1,0-.1a167.72,167.72,0,0,0,10.4-43.93,202.17,202.17,0,0,0,1.18-22.06c0-30.78-.59-94-60.21-97.47a41,41,0,0,0-9.12.79c-18.93,3.33-35.5,16.77-46.68,36.18a.36.36,0,0,0-.09.2,99.45,99.45,0,0,0-9.32,21.86c-2.74,11-4.51,24.81-5.1,40.11a20.08,20.08,0,0,0,.1,2.45h-.2C117.76,147.45,117.76,150,117.76,152.55Z" style="fill:#412312"/><path d="M111.58,298.16c-2.7,38.76,27.94,42.76,40.2,42.76,19.81,0,37.26-13.93,47.17-35a93.47,93.47,0,0,0,8.92-37.85L130.8,254.14a1.16,1.16,0,0,0-.49.49c-.1.1-.3.19-.3.39a58.79,58.79,0,0,0-11.18,15,.09.09,0,0,0-.09.1,55.45,55.45,0,0,0-6.57,20.2C111.77,292.87,111.76,295.52,111.58,298.16Z" style="fill:#412312"/></svg>