<svg id="fffd1e4a-50ac-46d6-bd08-b156abb9435c" data-name="Layer 1" xmlns="http://www.w3.org/2000/svg" viewBox="0 0 1920 1080"><title>sherlock</title><path d="M1197.59,851.42a84.55,84.55,0,0,1-48.53,15.34,83.54,83.54,0,0,1-35.74-8c-24.11-11.23-55.9-55.78-63.87-127.5-15.94-23.91-4-31.88-4-39.85,0-24.9-11.35-52.59-28.05-63.75-6.21-4.1-8.41-7.09-15.78-8-.24,4.51,0,8-4,12-20,20-8.69,36.41-8,65.08a29.47,29.47,0,0,0,.66,5.21c5.37,25.82-24.66,33.3-28.52,33.3-31.84,0-64.78-33.21-97.37-24.61a10.53,10.53,0,0,0-3.62,1.88c-4.16,3.17-10.16,6.18-6.59,34.69,3,24-1.44,56.57,4,83.67,43.83,75.71,103.6,170.86,103.6,199.22,4,23.91-13.51,31.88-41.84,31.88a71.65,71.65,0,0,1-11.75-1h-.08q-10.86-3-21.4-7C871.58,1046.62,730.09,918,651,896.68v-775c26-19.48,127-27.89,145.43-27.89,112.92,0,206.08,72.44,219.47,166v0l26.69,32.79,62.64,77s31.32,33.51,37.57,46.18-162-25.26-165.07-11.24c-8,35.86,67.73,71.72,79.69,131.49,3.46,17.31-58.82-1.89-67.74,15.94-4,8,0,19.93,4,27.89,4,4,8.36,9.49,8,15.94-.28,4.46-3.7,3.42-4,8l-.24,4.18c52,3.78,60,27.69,79.93,75.51,8.09,2.62,23.91,19.92,12,43.82,0,6,4,59.77,23.91,71.72,8.58,5.15,12-51.79,19.92-59.76,0-15.94,83.67-15.94,100.65,12.19C1232.73,767.15,1221.18,835,1197.59,851.42Z" style="fill:#1f110b"/></svg>